# xmcd
# Track frame offsets:
# 150
# 13447
# 29005
# 46742
# 59510
# 77930
# 99237
# 114880
# 130412
# 148272
# 161455
# 180235
#
# Disc length: 2620 seconds
# Revision: 0
# Processed by: cddbd v1.4PL0 Copyright (c) Steve Scherf et al.
# Submitted via: VisiTrax 2.9.5.180 - For more info visit www.synapsa.com
#
DISCID=9f0a3a0c
DTITLE=Bill Booth - Round the Bend
DYEAR=1994
DGENRE=
TTITLE0=Last To Leave
TTITLE1=Hit the Night Train
TTITLE2=Like a Tidal Wave
TTITLE3=High and Dry
TTITLE4=Pleasure and Tears
TTITLE5=Something so Wrong
TTITLE6=I Feel no Pain
TTITLE7=Hook Line and Sinker
TTITLE8=Rain Runnin` Down the Window
TTITLE9=Every Dog has His Day
TTITLE10=Big Money
TTITLE11=Rough and Ready
EXTD=
EXTT0=
EXTT1=
EXTT2=
EXTT3=
EXTT4=
EXTT5=
EXTT6=
EXTT7=
EXTT8=
EXTT9=
EXTT10=
EXTT11=
PLAYORDER=
